<?xml version="1.0" encoding="utf-8" standalone="no"?>
<!DOCTYPE svg PUBLIC "-//W3C//DTD SVG 1.1//EN"
  "http://www.w3.org/Graphics/SVG/1.1/DTD/svg11.dtd">
<svg xmlns:xlink="http://www.w3.org/1999/xlink" width="795.6pt" height="239.66pt" viewBox="0 0 795.6 239.66" xmlns="http://www.w3.org/2000/svg" version="1.1">
 <metadata>
  <rdf:RDF xmlns:dc="http://purl.org/dc/elements/1.1/" xmlns:cc="http://creativecommons.org/ns#" xmlns:rdf="http://www.w3.org/1999/02/22-rdf-syntax-ns#">
   <cc:Work>
    <dc:type rdf:resource="http://purl.org/dc/dcmitype/StillImage"/>
    <dc:date>2026-03-22T12:19:56.717407</dc:date>
    <dc:format>image/svg+xml</dc:format>
    <dc:creator>
     <cc:Agent>
      <dc:title>Matplotlib v3.10.8, https://matplotlib.org/</dc:title>
     </cc:Agent>
    </dc:creator>
   </cc:Work>
  </rdf:RDF>
 </metadata>
 <defs>
  <style type="text/css">*{stroke-linejoin: round; stroke-linecap: butt}</style>
 </defs>
 <g id="figure_1">
  <g id="patch_1">
   <path d="M 0 239.66 
L 795.6 239.66 
L 795.6 0 
L 0 0 
z
" style="fill: #ffffff"/>
  </g>
  <g id="axes_1">
   <g id="patch_2">
    <path d="M 7.2 228.96 
L 109.989474 228.96 
L 109.989474 7.2 
L 7.2 7.2 
z
" style="fill: #ffffff"/>
   </g>
   <g id="matplotlib.axis_1">
    <g id="xtick_1">
     <g id="line2d_1">
      <defs>
       <path id="m9d8bf65ee4" d="M 0 0 
L 0 3.5 
" style="stroke: #000000; stroke-width: 0.8"/>
      </defs>
      <g>
       <use xlink:href="#m9d8bf65ee4" x="19.669859" y="228.96" style="stroke: #000000; stroke-width: 0.8"/>
      </g>
     </g>
    </g>
    <g id="xtick_2">
     <g id="line2d_2">
      <g>
       <use xlink:href="#m9d8bf65ee4" x="58.673143" y="228.96" style="stroke: #000000; stroke-width: 0.8"/>
      </g>
     </g>
    </g>
    <g id="xtick_3">
     <g id="line2d_3">
      <g>
       <use xlink:href="#m9d8bf65ee4" x="97.676427" y="228.96" style="stroke: #000000; stroke-width: 0.8"/>
      </g>
     </g>
    </g>
   </g>
   <g id="line2d_4">
    <path d="M 58.673143 218.88 
L 43.475928 208.269474 
L 29.925567 197.658947 
L 19.490452 187.048421 
L 13.30139 176.437895 
L 12.029061 165.827368 
L 15.811342 155.216842 
L 24.238364 144.606316 
L 36.396929 133.995789 
L 50.969467 123.385263 
L 66.376818 112.774737 
L 80.949357 102.164211 
L 93.107922 91.553684 
L 101.534944 80.943158 
L 105.317225 70.332632 
L 104.044896 59.722105 
L 97.855834 49.111579 
L 87.420719 38.501053 
L 73.870358 27.890526 
L 58.673143 17.28 
" clip-path="url(#pa0912b6291)" style="fill: none; stroke: #00d500; stroke-width: 1.5; stroke-linecap: square"/>
   </g>
   <g id="line2d_5">
    <path d="M 98.057301 218.88 
L 87.712269 208.269474 
L 74.220396 197.658947 
L 59.043738 187.048421 
L 43.82692 176.437895 
L 30.21892 165.827368 
L 19.694377 155.216842 
L 13.393788 144.606316 
L 11.99992 133.995789 
L 15.66382 123.385263 
L 23.988447 112.774737 
L 36.071699 102.164211 
L 50.604169 91.553684 
L 66.011037 80.943158 
L 80.62273 70.332632 
L 92.855845 59.722105 
L 101.384734 49.111579 
L 105.285159 38.501053 
L 104.134449 27.890526 
L 98.057301 17.28 
" clip-path="url(#pa0912b6291)" style="fill: none; stroke: #0000c0; stroke-width: 1.5; stroke-linecap: square"/>
   </g>
   <g id="line2d_6">
    <path d="M 101.231846 218.88 
L 105.250171 208.269474 
L 104.221152 197.658947 
L 98.2563 187.048421 
L 88.001998 176.437895 
L 74.56946 165.827368 
L 59.414309 155.216842 
L 44.178842 144.606316 
L 30.514057 133.995789 
L 19.900745 123.385263 
L 13.489025 112.774737 
L 11.973705 102.164211 
L 15.518993 91.553684 
L 23.740704 80.943158 
L 35.747886 70.332632 
L 50.239376 59.722105 
L 65.644795 49.111579 
L 80.294727 38.501053 
L 92.601625 27.890526 
L 101.231846 17.28 
" clip-path="url(#pa0912b6291)" style="fill: none; stroke: #ffaa00; stroke-width: 1.5; stroke-linecap: square"/>
   </g>
   <g id="line2d_7">
    <path d="M 65.278116 218.88 
L 79.965369 208.269474 
L 92.345279 197.658947 
L 101.07629 187.048421 
L 105.212263 176.437895 
L 104.305 165.827368 
L 98.452817 155.216842 
L 88.289889 144.606316 
L 74.917527 133.995789 
L 59.784835 123.385263 
L 44.531673 112.774737 
L 30.810959 102.164211 
L 20.109544 91.553684 
L 13.587095 80.943158 
L 11.950418 70.332632 
L 15.376873 59.722105 
L 23.495151 49.111579 
L 35.42551 38.501053 
L 49.875111 27.890526 
L 65.278116 17.28 
" clip-path="url(#pa0912b6291)" style="fill: none; stroke: #d50000; stroke-width: 1.5; stroke-linecap: square"/>
   </g>
   <g id="patch_3">
    <path d="M 7.2 228.96 
L 7.2 7.2 
" style="fill: none; stroke: #000000; stroke-width: 0.8; stroke-linejoin: miter; stroke-linecap: square"/>
   </g>
   <g id="patch_4">
    <path d="M 109.989474 228.96 
L 109.989474 7.2 
" style="fill: none; stroke: #000000; stroke-width: 0.8; stroke-linejoin: miter; stroke-linecap: square"/>
   </g>
   <g id="patch_5">
    <path d="M 7.2 228.96 
L 109.989474 228.96 
" style="fill: none; stroke: #000000; stroke-width: 0.8; stroke-linejoin: miter; stroke-linecap: square"/>
   </g>
   <g id="patch_6">
    <path d="M 7.2 7.2 
L 109.989474 7.2 
" style="fill: none; stroke: #000000; stroke-width: 0.8; stroke-linejoin: miter; stroke-linecap: square"/>
   </g>
  </g>
  <g id="axes_2">
   <g id="patch_7">
    <path d="M 120.268421 228.96 
L 223.057895 228.96 
L 223.057895 7.2 
L 120.268421 7.2 
z
" style="fill: #ffffff"/>
   </g>
   <g id="matplotlib.axis_2">
    <g id="xtick_4">
     <g id="line2d_8">
      <g>
       <use xlink:href="#m9d8bf65ee4" x="132.73828" y="228.96" style="stroke: #000000; stroke-width: 0.8"/>
      </g>
     </g>
    </g>
    <g id="xtick_5">
     <g id="line2d_9">
      <g>
       <use xlink:href="#m9d8bf65ee4" x="171.741564" y="228.96" style="stroke: #000000; stroke-width: 0.8"/>
      </g>
     </g>
    </g>
    <g id="xtick_6">
     <g id="line2d_10">
      <g>
       <use xlink:href="#m9d8bf65ee4" x="210.744848" y="228.96" style="stroke: #000000; stroke-width: 0.8"/>
      </g>
     </g>
    </g>
   </g>
   <g id="line2d_11">
    <path d="M 211.125722 218.88 
L 200.78069 208.269474 
L 187.288817 197.658947 
L 172.112159 187.048421 
L 156.895341 176.437895 
L 143.287341 165.827368 
L 132.762798 155.216842 
L 126.462209 144.606316 
L 125.068341 133.995789 
L 128.732241 123.385263 
L 137.056868 112.774737 
L 149.14012 102.164211 
L 163.67259 91.553684 
L 179.079458 80.943158 
L 193.691151 70.332632 
L 205.924266 59.722105 
L 214.453155 49.111579 
L 218.35358 38.501053 
L 217.20287 27.890526 
L 211.125722 17.28 
" clip-path="url(#p9795da5fef)" style="fill: none; stroke: #00d500; stroke-width: 1.5; stroke-linecap: square"/>
   </g>
   <g id="line2d_12">
    <path d="M 214.300267 218.88 
L 218.318592 208.269474 
L 217.289573 197.658947 
L 211.324721 187.048421 
L 201.070419 176.437895 
L 187.637881 165.827368 
L 172.482731 155.216842 
L 157.247263 144.606316 
L 143.582478 133.995789 
L 132.969166 123.385263 
L 126.557446 112.774737 
L 125.042126 102.164211 
L 128.587414 91.553684 
L 136.809125 80.943158 
L 148.816307 70.332632 
L 163.307797 59.722105 
L 178.713216 49.111579 
L 193.363148 38.501053 
L 205.670046 27.890526 
L 214.300267 17.28 
" clip-path="url(#p9795da5fef)" style="fill: none; stroke: #0000c0; stroke-width: 1.5; stroke-linecap: square"/>
   </g>
   <g id="line2d_13">
    <path d="M 178.346537 218.88 
L 193.03379 208.269474 
L 205.4137 197.658947 
L 214.144711 187.048421 
L 218.280684 176.437895 
L 217.373421 165.827368 
L 211.521238 155.216842 
L 201.35831 144.606316 
L 187.985949 133.995789 
L 172.853256 123.385263 
L 157.600094 112.774737 
L 143.87938 102.164211 
L 133.177965 91.553684 
L 126.655516 80.943158 
L 125.018839 70.332632 
L 128.445294 59.722105 
L 136.563572 49.111579 
L 148.493931 38.501053 
L 162.943532 27.890526 
L 178.346537 17.28 
" clip-path="url(#p9795da5fef)" style="fill: none; stroke: #ffaa00; stroke-width: 1.5; stroke-linecap: square"/>
   </g>
   <g id="line2d_14">
    <path d="M 136.320225 218.88 
L 148.173013 208.269474 
L 162.57982 197.658947 
L 177.979443 187.048421 
L 192.703096 176.437895 
L 205.155242 165.827368 
L 213.986497 155.216842 
L 218.239858 144.606316 
L 217.454407 133.995789 
L 211.715261 123.385263 
L 201.644344 112.774737 
L 188.332997 102.164211 
L 173.223711 91.553684 
L 157.953811 80.943158 
L 144.178028 70.332632 
L 133.389182 59.722105 
L 126.756412 49.111579 
L 124.998481 38.501053 
L 128.305888 27.890526 
L 136.320225 17.28 
" clip-path="url(#p9795da5fef)" style="fill: none; stroke: #d50000; stroke-width: 1.5; stroke-linecap: square"/>
   </g>
   <g id="patch_8">
    <path d="M 120.268421 228.96 
L 120.268421 7.2 
" style="fill: none; stroke: #000000; stroke-width: 0.8; stroke-linejoin: miter; stroke-linecap: square"/>
   </g>
   <g id="patch_9">
    <path d="M 223.057895 228.96 
L 223.057895 7.2 
" style="fill: none; stroke: #000000; stroke-width: 0.8; stroke-linejoin: miter; stroke-linecap: square"/>
   </g>
   <g id="patch_10">
    <path d="M 120.268421 228.96 
L 223.057895 228.96 
" style="fill: none; stroke: #000000; stroke-width: 0.8; stroke-linejoin: miter; stroke-linecap: square"/>
   </g>
   <g id="patch_11">
    <path d="M 120.268421 7.2 
L 223.057895 7.2 
" style="fill: none; stroke: #000000; stroke-width: 0.8; stroke-linejoin: miter; stroke-linecap: square"/>
   </g>
  </g>
  <g id="axes_3">
   <g id="patch_12">
    <path d="M 233.336842 228.96 
L 336.126316 228.96 
L 336.126316 7.2 
L 233.336842 7.2 
z
" style="fill: #ffffff"/>
   </g>
   <g id="matplotlib.axis_3">
    <g id="xtick_7">
     <g id="line2d_15">
      <g>
       <use xlink:href="#m9d8bf65ee4" x="245.806701" y="228.96" style="stroke: #000000; stroke-width: 0.8"/>
      </g>
     </g>
    </g>
    <g id="xtick_8">
     <g id="line2d_16">
      <g>
       <use xlink:href="#m9d8bf65ee4" x="284.809985" y="228.96" style="stroke: #000000; stroke-width: 0.8"/>
      </g>
     </g>
    </g>
    <g id="xtick_9">
     <g id="line2d_17">
      <g>
       <use xlink:href="#m9d8bf65ee4" x="323.813269" y="228.96" style="stroke: #000000; stroke-width: 0.8"/>
      </g>
     </g>
    </g>
   </g>
   <g id="line2d_18">
    <path d="M 327.368688 218.88 
L 331.387013 208.269474 
L 330.357994 197.658947 
L 324.393142 187.048421 
L 314.138841 176.437895 
L 300.706302 165.827368 
L 285.551152 155.216842 
L 270.315684 144.606316 
L 256.650899 133.995789 
L 246.037587 123.385263 
L 239.625867 112.774737 
L 238.110547 102.164211 
L 241.655836 91.553684 
L 249.877546 80.943158 
L 261.884728 70.332632 
L 276.376218 59.722105 
L 291.781637 49.111579 
L 306.431569 38.501053 
L 318.738467 27.890526 
L 327.368688 17.28 
" clip-path="url(#pd3b19eb4da)" style="fill: none; stroke: #00d500; stroke-width: 1.5; stroke-linecap: square"/>
   </g>
   <g id="line2d_19">
    <path d="M 291.414958 218.88 
L 306.102211 208.269474 
L 318.482121 197.658947 
L 327.213132 187.048421 
L 331.349105 176.437895 
L 330.441842 165.827368 
L 324.589659 155.216842 
L 314.426731 144.606316 
L 301.05437 133.995789 
L 285.921677 123.385263 
L 270.668515 112.774737 
L 256.947801 102.164211 
L 246.246387 91.553684 
L 239.723937 80.943158 
L 238.08726 70.332632 
L 241.513715 59.722105 
L 249.631993 49.111579 
L 261.562352 38.501053 
L 276.011953 27.890526 
L 291.414958 17.28 
" clip-path="url(#pd3b19eb4da)" style="fill: none; stroke: #0000c0; stroke-width: 1.5; stroke-linecap: square"/>
   </g>
   <g id="line2d_20">
    <path d="M 249.388646 218.88 
L 261.241434 208.269474 
L 275.648241 197.658947 
L 291.047864 187.048421 
L 305.771517 176.437895 
L 318.223663 165.827368 
L 327.054918 155.216842 
L 331.308279 144.606316 
L 330.522828 133.995789 
L 324.783682 123.385263 
L 314.712765 112.774737 
L 301.401418 102.164211 
L 286.292132 91.553684 
L 271.022232 80.943158 
L 257.24645 70.332632 
L 246.457603 59.722105 
L 239.824833 49.111579 
L 238.066902 38.501053 
L 241.374309 27.890526 
L 249.388646 17.28 
" clip-path="url(#pd3b19eb4da)" style="fill: none; stroke: #ffaa00; stroke-width: 1.5; stroke-linecap: square"/>
   </g>
   <g id="line2d_21">
    <path d="M 239.92855 218.88 
L 238.049475 208.269474 
L 241.237626 197.658947 
L 249.147519 187.048421 
L 260.921994 176.437895 
L 275.285102 165.827368 
L 290.68038 155.216842 
L 305.43951 144.606316 
L 317.96311 133.995789 
L 326.894055 123.385263 
L 331.264537 112.774737 
L 330.600949 102.164211 
L 324.975199 91.553684 
L 314.996924 80.943158 
L 301.747427 70.332632 
L 286.662495 59.722105 
L 271.376814 49.111579 
L 257.546827 38.501053 
L 246.671225 27.890526 
L 239.92855 17.28 
" clip-path="url(#pd3b19eb4da)" style="fill: none; stroke: #d50000; stroke-width: 1.5; stroke-linecap: square"/>
   </g>
   <g id="patch_13">
    <path d="M 233.336842 228.96 
L 233.336842 7.2 
" style="fill: none; stroke: #000000; stroke-width: 0.8; stroke-linejoin: miter; stroke-linecap: square"/>
   </g>
   <g id="patch_14">
    <path d="M 336.126316 228.96 
L 336.126316 7.2 
" style="fill: none; stroke: #000000; stroke-width: 0.8; stroke-linejoin: miter; stroke-linecap: square"/>
   </g>
   <g id="patch_15">
    <path d="M 233.336842 228.96 
L 336.126316 228.96 
" style="fill: none; stroke: #000000; stroke-width: 0.8; stroke-linejoin: miter; stroke-linecap: square"/>
   </g>
   <g id="patch_16">
    <path d="M 233.336842 7.2 
L 336.126316 7.2 
" style="fill: none; stroke: #000000; stroke-width: 0.8; stroke-linejoin: miter; stroke-linecap: square"/>
   </g>
  </g>
  <g id="axes_4">
   <g id="patch_17">
    <path d="M 346.405263 228.96 
L 449.194737 228.96 
L 449.194737 7.2 
L 346.405263 7.2 
z
" style="fill: #ffffff"/>
   </g>
   <g id="matplotlib.axis_4">
    <g id="xtick_10">
     <g id="line2d_22">
      <g>
       <use xlink:href="#m9d8bf65ee4" x="358.875122" y="228.96" style="stroke: #000000; stroke-width: 0.8"/>
      </g>
     </g>
    </g>
    <g id="xtick_11">
     <g id="line2d_23">
      <g>
       <use xlink:href="#m9d8bf65ee4" x="397.878406" y="228.96" style="stroke: #000000; stroke-width: 0.8"/>
      </g>
     </g>
    </g>
    <g id="xtick_12">
     <g id="line2d_24">
      <g>
       <use xlink:href="#m9d8bf65ee4" x="436.88169" y="228.96" style="stroke: #000000; stroke-width: 0.8"/>
      </g>
     </g>
    </g>
   </g>
   <g id="line2d_25">
    <path d="M 404.483379 218.88 
L 419.170632 208.269474 
L 431.550542 197.658947 
L 440.281553 187.048421 
L 444.417526 176.437895 
L 443.510263 165.827368 
L 437.65808 155.216842 
L 427.495152 144.606316 
L 414.122791 133.995789 
L 398.990098 123.385263 
L 383.736936 112.774737 
L 370.016222 102.164211 
L 359.314808 91.553684 
L 352.792358 80.943158 
L 351.155681 70.332632 
L 354.582136 59.722105 
L 362.700414 49.111579 
L 374.630773 38.501053 
L 389.080374 27.890526 
L 404.483379 17.28 
" clip-path="url(#pbe90e8efe3)" style="fill: none; stroke: #00d500; stroke-width: 1.5; stroke-linecap: square"/>
   </g>
   <g id="line2d_26">
    <path d="M 362.457067 218.88 
L 374.309855 208.269474 
L 388.716662 197.658947 
L 404.116286 187.048421 
L 418.839938 176.437895 
L 431.292084 165.827368 
L 440.123339 155.216842 
L 444.3767 144.606316 
L 443.591249 133.995789 
L 437.852103 123.385263 
L 427.781186 112.774737 
L 414.469839 102.164211 
L 399.360553 91.553684 
L 384.090653 80.943158 
L 370.314871 70.332632 
L 359.526025 59.722105 
L 352.893254 49.111579 
L 351.135323 38.501053 
L 354.44273 27.890526 
L 362.457067 17.28 
" clip-path="url(#pbe90e8efe3)" style="fill: none; stroke: #0000c0; stroke-width: 1.5; stroke-linecap: square"/>
   </g>
   <g id="line2d_27">
    <path d="M 352.996971 218.88 
L 351.117896 208.269474 
L 354.306047 197.658947 
L 362.21594 187.048421 
L 373.990415 176.437895 
L 388.353523 165.827368 
L 403.748801 155.216842 
L 418.507931 144.606316 
L 431.031531 133.995789 
L 439.962476 123.385263 
L 444.332959 112.774737 
L 443.66937 102.164211 
L 438.04362 91.553684 
L 428.065345 80.943158 
L 414.815848 70.332632 
L 399.730916 59.722105 
L 384.445235 49.111579 
L 370.615248 38.501053 
L 359.739646 27.890526 
L 352.996971 17.28 
" clip-path="url(#pbe90e8efe3)" style="fill: none; stroke: #ffaa00; stroke-width: 1.5; stroke-linecap: square"/>
   </g>
   <g id="line2d_28">
    <path d="M 384.80066 218.88 
L 370.917334 208.269474 
L 359.955659 197.658947 
L 353.103502 187.048421 
L 351.1034 176.437895 
L 354.172096 165.827368 
L 361.97705 155.216842 
L 373.672472 144.606316 
L 387.990982 133.995789 
L 403.380949 123.385263 
L 418.17463 112.774737 
L 430.768899 102.164211 
L 439.798974 91.553684 
L 444.286305 80.943158 
L 443.744619 70.332632 
L 438.232618 59.722105 
L 428.347612 49.111579 
L 415.160795 38.501053 
L 400.101162 27.890526 
L 384.80066 17.28 
" clip-path="url(#pbe90e8efe3)" style="fill: none; stroke: #d50000; stroke-width: 1.5; stroke-linecap: square"/>
   </g>
   <g id="patch_18">
    <path d="M 346.405263 228.96 
L 346.405263 7.2 
" style="fill: none; stroke: #000000; stroke-width: 0.8; stroke-linejoin: miter; stroke-linecap: square"/>
   </g>
   <g id="patch_19">
    <path d="M 449.194737 228.96 
L 449.194737 7.2 
" style="fill: none; stroke: #000000; stroke-width: 0.8; stroke-linejoin: miter; stroke-linecap: square"/>
   </g>
   <g id="patch_20">
    <path d="M 346.405263 228.96 
L 449.194737 228.96 
" style="fill: none; stroke: #000000; stroke-width: 0.8; stroke-linejoin: miter; stroke-linecap: square"/>
   </g>
   <g id="patch_21">
    <path d="M 346.405263 7.2 
L 449.194737 7.2 
" style="fill: none; stroke: #000000; stroke-width: 0.8; stroke-linejoin: miter; stroke-linecap: square"/>
   </g>
  </g>
  <g id="axes_5">
   <g id="patch_22">
    <path d="M 459.473684 228.96 
L 562.263158 228.96 
L 562.263158 7.2 
L 459.473684 7.2 
z
" style="fill: #ffffff"/>
   </g>
   <g id="matplotlib.axis_5">
    <g id="xtick_13">
     <g id="line2d_29">
      <g>
       <use xlink:href="#m9d8bf65ee4" x="471.943543" y="228.96" style="stroke: #000000; stroke-width: 0.8"/>
      </g>
     </g>
    </g>
    <g id="xtick_14">
     <g id="line2d_30">
      <g>
       <use xlink:href="#m9d8bf65ee4" x="510.946827" y="228.96" style="stroke: #000000; stroke-width: 0.8"/>
      </g>
     </g>
    </g>
    <g id="xtick_15">
     <g id="line2d_31">
      <g>
       <use xlink:href="#m9d8bf65ee4" x="549.950111" y="228.96" style="stroke: #000000; stroke-width: 0.8"/>
      </g>
     </g>
    </g>
   </g>
   <g id="line2d_32">
    <path d="M 475.525488 218.88 
L 487.378276 208.269474 
L 501.785083 197.658947 
L 517.184707 187.048421 
L 531.908359 176.437895 
L 544.360505 165.827368 
L 553.19176 155.216842 
L 557.445121 144.606316 
L 556.65967 133.995789 
L 550.920524 123.385263 
L 540.849607 112.774737 
L 527.53826 102.164211 
L 512.428974 91.553684 
L 497.159074 80.943158 
L 483.383292 70.332632 
L 472.594446 59.722105 
L 465.961675 49.111579 
L 464.203744 38.501053 
L 467.511151 27.890526 
L 475.525488 17.28 
" clip-path="url(#p5b0b4e7a95)" style="fill: none; stroke: #00d500; stroke-width: 1.5; stroke-linecap: square"/>
   </g>
   <g id="line2d_33">
    <path d="M 466.065392 218.88 
L 464.186317 208.269474 
L 467.374468 197.658947 
L 475.284361 187.048421 
L 487.058836 176.437895 
L 501.421945 165.827368 
L 516.817222 155.216842 
L 531.576352 144.606316 
L 544.099952 133.995789 
L 553.030897 123.385263 
L 557.40138 112.774737 
L 556.737791 102.164211 
L 551.112041 91.553684 
L 541.133766 80.943158 
L 527.884269 70.332632 
L 512.799337 59.722105 
L 497.513656 49.111579 
L 483.683669 38.501053 
L 472.808067 27.890526 
L 466.065392 17.28 
" clip-path="url(#p5b0b4e7a95)" style="fill: none; stroke: #0000c0; stroke-width: 1.5; stroke-linecap: square"/>
   </g>
   <g id="line2d_34">
    <path d="M 497.869081 218.88 
L 483.985755 208.269474 
L 473.02408 197.658947 
L 466.171923 187.048421 
L 464.171821 176.437895 
L 467.240517 165.827368 
L 475.045471 155.216842 
L 486.740893 144.606316 
L 501.059403 133.995789 
L 516.44937 123.385263 
L 531.243051 112.774737 
L 543.837321 102.164211 
L 552.867395 91.553684 
L 557.354726 80.943158 
L 556.81304 70.332632 
L 551.301039 59.722105 
L 541.416033 49.111579 
L 528.229216 38.501053 
L 513.169583 27.890526 
L 497.869081 17.28 
" clip-path="url(#p5b0b4e7a95)" style="fill: none; stroke: #ffaa00; stroke-width: 1.5; stroke-linecap: square"/>
   </g>
   <g id="line2d_35">
    <path d="M 541.696389 218.88 
L 528.573079 208.269474 
L 513.53969 197.658947 
L 498.225325 187.048421 
L 484.289532 176.437895 
L 473.24247 165.827368 
L 466.281261 155.216842 
L 464.160258 144.606316 
L 467.109307 133.995789 
L 474.808831 123.385263 
L 486.424467 112.774737 
L 500.697482 102.164211 
L 516.081173 91.553684 
L 530.908477 80.943158 
L 543.572627 70.332632 
L 552.701265 59.722105 
L 557.305162 49.111579 
L 556.885414 38.501053 
L 551.487508 27.890526 
L 541.696389 17.28 
" clip-path="url(#p5b0b4e7a95)" style="fill: none; stroke: #d50000; stroke-width: 1.5; stroke-linecap: square"/>
   </g>
   <g id="patch_23">
    <path d="M 459.473684 228.96 
L 459.473684 7.2 
" style="fill: none; stroke: #000000; stroke-width: 0.8; stroke-linejoin: miter; stroke-linecap: square"/>
   </g>
   <g id="patch_24">
    <path d="M 562.263158 228.96 
L 562.263158 7.2 
" style="fill: none; stroke: #000000; stroke-width: 0.8; stroke-linejoin: miter; stroke-linecap: square"/>
   </g>
   <g id="patch_25">
    <path d="M 459.473684 228.96 
L 562.263158 228.96 
" style="fill: none; stroke: #000000; stroke-width: 0.8; stroke-linejoin: miter; stroke-linecap: square"/>
   </g>
   <g id="patch_26">
    <path d="M 459.473684 7.2 
L 562.263158 7.2 
" style="fill: none; stroke: #000000; stroke-width: 0.8; stroke-linejoin: miter; stroke-linecap: square"/>
   </g>
  </g>
  <g id="axes_6">
   <g id="patch_27">
    <path d="M 572.542105 228.96 
L 675.331579 228.96 
L 675.331579 7.2 
L 572.542105 7.2 
z
" style="fill: #ffffff"/>
   </g>
   <g id="matplotlib.axis_6">
    <g id="xtick_16">
     <g id="line2d_36">
      <g>
       <use xlink:href="#m9d8bf65ee4" x="585.011964" y="228.96" style="stroke: #000000; stroke-width: 0.8"/>
      </g>
     </g>
    </g>
    <g id="xtick_17">
     <g id="line2d_37">
      <g>
       <use xlink:href="#m9d8bf65ee4" x="624.015248" y="228.96" style="stroke: #000000; stroke-width: 0.8"/>
      </g>
     </g>
    </g>
    <g id="xtick_18">
     <g id="line2d_38">
      <g>
       <use xlink:href="#m9d8bf65ee4" x="663.018532" y="228.96" style="stroke: #000000; stroke-width: 0.8"/>
      </g>
     </g>
    </g>
   </g>
   <g id="line2d_39">
    <path d="M 579.133813 218.88 
L 577.254738 208.269474 
L 580.442889 197.658947 
L 588.352782 187.048421 
L 600.127257 176.437895 
L 614.490366 165.827368 
L 629.885643 155.216842 
L 644.644773 144.606316 
L 657.168373 133.995789 
L 666.099318 123.385263 
L 670.469801 112.774737 
L 669.806212 102.164211 
L 664.180462 91.553684 
L 654.202188 80.943158 
L 640.95269 70.332632 
L 625.867758 59.722105 
L 610.582078 49.111579 
L 596.75209 38.501053 
L 585.876488 27.890526 
L 579.133813 17.28 
" clip-path="url(#pbc72464eb8)" style="fill: none; stroke: #00d500; stroke-width: 1.5; stroke-linecap: square"/>
   </g>
   <g id="line2d_40">
    <path d="M 610.937502 218.88 
L 597.054176 208.269474 
L 586.092501 197.658947 
L 579.240344 187.048421 
L 577.240242 176.437895 
L 580.308939 165.827368 
L 588.113892 155.216842 
L 599.809314 144.606316 
L 614.127825 133.995789 
L 629.517791 123.385263 
L 644.311472 112.774737 
L 656.905742 102.164211 
L 665.935816 91.553684 
L 670.423147 80.943158 
L 669.881461 70.332632 
L 664.36946 59.722105 
L 654.484454 49.111579 
L 641.297637 38.501053 
L 626.238004 27.890526 
L 610.937502 17.28 
" clip-path="url(#pbc72464eb8)" style="fill: none; stroke: #0000c0; stroke-width: 1.5; stroke-linecap: square"/>
   </g>
   <g id="line2d_41">
    <path d="M 654.76481 218.88 
L 641.6415 208.269474 
L 626.608111 197.658947 
L 611.293746 187.048421 
L 597.357953 176.437895 
L 586.310891 165.827368 
L 579.349682 155.216842 
L 577.228679 144.606316 
L 580.177728 133.995789 
L 587.877252 123.385263 
L 599.492888 112.774737 
L 613.765903 102.164211 
L 629.149594 91.553684 
L 643.976898 80.943158 
L 656.641048 70.332632 
L 665.769686 59.722105 
L 670.373583 49.111579 
L 669.953835 38.501053 
L 664.555929 27.890526 
L 654.76481 17.28 
" clip-path="url(#pbc72464eb8)" style="fill: none; stroke: #ffaa00; stroke-width: 1.5; stroke-linecap: square"/>
   </g>
   <g id="line2d_42">
    <path d="M 670.321113 218.88 
L 670.023329 208.269474 
L 664.739855 197.658947 
L 655.043239 187.048421 
L 641.984258 176.437895 
L 626.978056 165.827368 
L 611.650788 155.216842 
L 597.663401 144.606316 
L 586.531645 133.995789 
L 579.46182 123.385263 
L 577.22005 112.774737 
L 580.049266 102.164211 
L 587.642878 91.553684 
L 599.178001 80.943158 
L 613.404625 70.332632 
L 628.781075 59.722105 
L 643.641073 49.111579 
L 656.374309 38.501053 
L 665.600939 27.890526 
L 670.321113 17.28 
" clip-path="url(#pbc72464eb8)" style="fill: none; stroke: #d50000; stroke-width: 1.5; stroke-linecap: square"/>
   </g>
   <g id="patch_28">
    <path d="M 572.542105 228.96 
L 572.542105 7.2 
" style="fill: none; stroke: #000000; stroke-width: 0.8; stroke-linejoin: miter; stroke-linecap: square"/>
   </g>
   <g id="patch_29">
    <path d="M 675.331579 228.96 
L 675.331579 7.2 
" style="fill: none; stroke: #000000; stroke-width: 0.8; stroke-linejoin: miter; stroke-linecap: square"/>
   </g>
   <g id="patch_30">
    <path d="M 572.542105 228.96 
L 675.331579 228.96 
" style="fill: none; stroke: #000000; stroke-width: 0.8; stroke-linejoin: miter; stroke-linecap: square"/>
   </g>
   <g id="patch_31">
    <path d="M 572.542105 7.2 
L 675.331579 7.2 
" style="fill: none; stroke: #000000; stroke-width: 0.8; stroke-linejoin: miter; stroke-linecap: square"/>
   </g>
  </g>
  <g id="axes_7">
   <g id="patch_32">
    <path d="M 685.610526 228.96 
L 788.4 228.96 
L 788.4 7.2 
L 685.610526 7.2 
z
" style="fill: #ffffff"/>
   </g>
   <g id="matplotlib.axis_7">
    <g id="xtick_19">
     <g id="line2d_43">
      <g>
       <use xlink:href="#m9d8bf65ee4" x="698.080385" y="228.96" style="stroke: #000000; stroke-width: 0.8"/>
      </g>
     </g>
    </g>
    <g id="xtick_20">
     <g id="line2d_44">
      <g>
       <use xlink:href="#m9d8bf65ee4" x="737.083669" y="228.96" style="stroke: #000000; stroke-width: 0.8"/>
      </g>
     </g>
    </g>
    <g id="xtick_21">
     <g id="line2d_45">
      <g>
       <use xlink:href="#m9d8bf65ee4" x="776.086954" y="228.96" style="stroke: #000000; stroke-width: 0.8"/>
      </g>
     </g>
    </g>
   </g>
   <g id="line2d_46">
    <path d="M 724.005923 218.88 
L 710.122597 208.269474 
L 699.160922 197.658947 
L 692.308765 187.048421 
L 690.308663 176.437895 
L 693.37736 165.827368 
L 701.182313 155.216842 
L 712.877735 144.606316 
L 727.196246 133.995789 
L 742.586212 123.385263 
L 757.379893 112.774737 
L 769.974163 102.164211 
L 779.004237 91.553684 
L 783.491568 80.943158 
L 782.949883 70.332632 
L 777.437881 59.722105 
L 767.552875 49.111579 
L 754.366058 38.501053 
L 739.306425 27.890526 
L 724.005923 17.28 
" clip-path="url(#p17e879e778)" style="fill: none; stroke: #00d500; stroke-width: 1.5; stroke-linecap: square"/>
   </g>
   <g id="line2d_47">
    <path d="M 767.833231 218.88 
L 754.709921 208.269474 
L 739.676532 197.658947 
L 724.362167 187.048421 
L 710.426374 176.437895 
L 699.379312 165.827368 
L 692.418103 155.216842 
L 690.2971 144.606316 
L 693.246149 133.995789 
L 700.945673 123.385263 
L 712.56131 112.774737 
L 726.834324 102.164211 
L 742.218015 91.553684 
L 757.045319 80.943158 
L 769.709469 70.332632 
L 778.838107 59.722105 
L 783.442004 49.111579 
L 783.022256 38.501053 
L 777.62435 27.890526 
L 767.833231 17.28 
" clip-path="url(#p17e879e778)" style="fill: none; stroke: #0000c0; stroke-width: 1.5; stroke-linecap: square"/>
   </g>
   <g id="line2d_48">
    <path d="M 783.389534 218.88 
L 783.09175 208.269474 
L 777.808276 197.658947 
L 768.11166 187.048421 
L 755.052679 176.437895 
L 740.046477 165.827368 
L 724.719209 155.216842 
L 710.731822 144.606316 
L 699.600066 133.995789 
L 692.530241 123.385263 
L 690.288471 112.774737 
L 693.117687 102.164211 
L 700.711299 91.553684 
L 712.246422 80.943158 
L 726.473046 70.332632 
L 741.849496 59.722105 
L 756.709494 49.111579 
L 769.44273 38.501053 
L 778.66936 27.890526 
L 783.389534 17.28 
" clip-path="url(#p17e879e778)" style="fill: none; stroke: #ffaa00; stroke-width: 1.5; stroke-linecap: square"/>
   </g>
   <g id="line2d_49">
    <path d="M 756.372439 218.88 
L 769.173962 208.269474 
L 778.498005 197.658947 
L 783.334161 187.048421 
L 783.158359 176.437895 
L 777.98965 165.827368 
L 768.388143 155.216842 
L 755.39431 144.606316 
L 740.416235 133.995789 
L 725.077026 123.385263 
L 711.038922 112.774737 
L 699.823171 102.164211 
L 692.645173 91.553684 
L 690.282775 80.943158 
L 692.991981 70.332632 
L 700.479205 59.722105 
L 711.933091 49.111579 
L 726.112432 38.501053 
L 741.480678 27.890526 
L 756.372439 17.28 
" clip-path="url(#p17e879e778)" style="fill: none; stroke: #d50000; stroke-width: 1.5; stroke-linecap: square"/>
   </g>
   <g id="patch_33">
    <path d="M 685.610526 228.96 
L 685.610526 7.2 
" style="fill: none; stroke: #000000; stroke-width: 0.8; stroke-linejoin: miter; stroke-linecap: square"/>
   </g>
   <g id="patch_34">
    <path d="M 788.4 228.96 
L 788.4 7.2 
" style="fill: none; stroke: #000000; stroke-width: 0.8; stroke-linejoin: miter; stroke-linecap: square"/>
   </g>
   <g id="patch_35">
    <path d="M 685.610526 228.96 
L 788.4 228.96 
" style="fill: none; stroke: #000000; stroke-width: 0.8; stroke-linejoin: miter; stroke-linecap: square"/>
   </g>
   <g id="patch_36">
    <path d="M 685.610526 7.2 
L 788.4 7.2 
" style="fill: none; stroke: #000000; stroke-width: 0.8; stroke-linejoin: miter; stroke-linecap: square"/>
   </g>
  </g>
 </g>
 <defs>
  <clipPath id="pa0912b6291">
   <rect x="7.2" y="7.2" width="102.789474" height="221.76"/>
  </clipPath>
  <clipPath id="p9795da5fef">
   <rect x="120.268421" y="7.2" width="102.789474" height="221.76"/>
  </clipPath>
  <clipPath id="pd3b19eb4da">
   <rect x="233.336842" y="7.2" width="102.789474" height="221.76"/>
  </clipPath>
  <clipPath id="pbe90e8efe3">
   <rect x="346.405263" y="7.2" width="102.789474" height="221.76"/>
  </clipPath>
  <clipPath id="p5b0b4e7a95">
   <rect x="459.473684" y="7.2" width="102.789474" height="221.76"/>
  </clipPath>
  <clipPath id="pbc72464eb8">
   <rect x="572.542105" y="7.2" width="102.789474" height="221.76"/>
  </clipPath>
  <clipPath id="p17e879e778">
   <rect x="685.610526" y="7.2" width="102.789474" height="221.76"/>
  </clipPath>
 </defs>
</svg>
